<?xml version="1.0" encoding="UTF-8"?>
<svg id="Layer_2" data-name="Layer 2" xmlns="http://www.w3.org/2000/svg" viewBox="0 0 469.03 430.43">
  <defs>
    <style>
      .cls-1 {
        fill: #3874ff;
      }
    </style>
  </defs>
  <g id="Layer_1-2" data-name="Layer 1">
    <g>
      <g>
        <path class="cls-1" d="M283.09,426.68c-9.43,1.19-21-6.98-28.57-13.9-17.24-16.51-17.5-36.87-6.08-56.85,8.92-18.73,32.47-41.92,28.04-63.12-5.91-18.77-30.3-19.6-46.66-14.96-21.85,5.59-36.85,21.68-53.51,36.42-10.57,9.24-21.7,17.41-33.65,24.93-22.94,14.59-49.72,28.21-72.75,43.32-10.65,7.08-19.77,15.26-28.56,24.23-9.16,9.13-20.49,22.79-26.9,23.59-10.85,1.52-13.77-16.82-14.38-25.76-.64-14.93,4-30.47,13.49-42.05,6.68-7.87,14.84-12.47,25.59-18.47,31.81-17.14,61.92-39.59,85.67-66.7,8.03-9.17,16.08-21.16,23.06-30.01,4.91-6.15,9.66-10.6,14.37-12.15,14.84-5.01,20.74,19.41,29.5,23.7,13.91,7.76,32.24-53.18,39.05-64.03,25.97-55.6,24.04,24,46.83,27.48,9.17.28,19.35-10.82,28.24-16,7.85-4.81,21.05-12.12,29.31-7.87,3.85,3.92-.98,9.52-2.76,14.31-5.29,9.58-1.9,18.68,3.17,27.74,14.4,25.11,20.91,38.6,4.87,65.87-18.9,31.84-44.15,48.77-48.5,88.63-1.91,8.77.77,29.98-8.8,31.64h-.06Z"/>
        <path class="cls-1" d="M251.06,144.59c-7.44-1.66-13.91,11.67-17.24,17.27-10.01,17.94-18.52,41.93-30.32,58.03-4.72,6.24-10.96,10.04-17.21,3.24-9.68-10.44-17.1-33.33-34.7-21.18-5.75,3.79-11.96,9.16-18.4,13.31-8.61,5.67-18.63,10.41-28.81,12.7-11.52,2.9-27.2,1.25-34.29-1.34-2.51-.84-6.51-2.27-5.42-4.69.88-1.58,4.29-3.09,9.24-4.71,3.81-1.26,8.52-2.63,13.59-4.33,7.48-2.49,15.46-5.74,22.53-9.79,31.8-17.13,37.12-51.06,53.9-56.7,11.9-3.15,18.53,15.46,30.99,7.95,5.02-3.06,8.94-8.09,12.19-15.24,4.89-11.23,6.83-28.32-1.22-38.14-10.92-11.99-34.25-1.41-46.74,4.32-13.17,5.4-50,30.23-58.77,22.74-4.32-4.89.05-14.49,6.28-25.87,8.57-14.8,20.87-27.65,34.61-37.81,21.09-16.27,48.16-20.28,74.64-20.47,18.47.03,37.27,1.01,53.8,7.84,13.83,5.87,24.2,14.48,35.91,22.81,12.97,9.34,25.76,18.73,39.02,28.17,14.27,9.87,29.5,18.91,46.39,22.27,21.99,4.29,43.88-10.84,63.65-17.04,24.03-7.1,12.76,14.86,2.92,29.12-7.36,10.8-16.53,20.43-26.72,28.64-11.74,9.37-22.16,16.46-36.11,17.74-13.28,1.17-25.57-4.67-38.13-7.94-8.94-2.33-17.91-3.24-26.77-1.28-6.66,1.43-12.9,4.4-18.78,7.77-11.36,6.16-18.92,14.12-29.28,9.96-15.59-7.02-18.49-42.89-30.68-47.32l-.06-.02Z"/>
        <path class="cls-1" d="M384.66,40.35c.06,30.52-32.71,49.67-59.45,35.36-28.3-15.07-27.84-56.87.81-71.29,26.62-13.57,58.78,5.72,58.65,35.78v.15Z"/>
      </g>
      <g>
        <path class="cls-1" d="M446.28,0c-12.54,0-22.75,10.21-22.75,22.75s10.21,22.75,22.75,22.75,22.75-10.21,22.75-22.75S458.82,0,446.28,0ZM446.28,38.33c-8.59,0-15.58-6.99-15.58-15.58s6.99-15.58,15.58-15.58,15.58,6.99,15.58,15.58-6.99,15.58-15.58,15.58Z"/>
        <path class="cls-1" d="M450.39,23.65v-.17c2.54-.97,3.63-2.56,3.63-4.04,0-2.3-2.58-4.47-6.73-4.47h-9.54v15.56h6.17v-5.16h1.01c2.79,0,3.2,1.59,3.2,5.16h6.66c0-3.76-1.61-6.41-4.41-6.88ZM446.96,21.78h-3.03v-1.07h3.03c.56,0,.82.28.82.6,0,.26-.17.47-.82.47Z"/>
      </g>
    </g>
  </g>
</svg>